<svg class="logo-img" viewBox="0 0 165 48" xmlns="http://www.w3.org/2000/svg"><path class="logo-text" d="M67.151 24.16h-5.538v3.492h6.542v2.709H58.091V15.752h10.083v2.719h-6.562v3.08h5.538v2.609zM73.921 27.953c.475 0 .843-.128 1.104-.386.262-.258.388-.618.382-1.079h3.171c0 1.19-.427 2.168-1.28 2.931-.853.762-1.951 1.143-3.295 1.143-1.579 0-2.823-.494-3.733-1.485-.91-.989-1.364-2.361-1.364-4.113v-.141c0-1.096.201-2.064.607-2.904.404-.84.988-1.485 1.751-1.936.762-.452 1.665-.678 2.708-.678 1.41 0 2.531.392 3.361 1.174.829.783 1.244 1.842 1.244 3.18h-3.171c0-.561-.137-.992-.411-1.293-.274-.301-.643-.453-1.104-.453-.876 0-1.389.56-1.535 1.675-.047.354-.07.844-.07 1.466 0 1.09.13 1.847.392 2.267.26.422.675.632 1.243.632zM79.461 24.833c0-1.085.21-2.049.633-2.896a4.523 4.523 0 011.815-1.951c.789-.456 1.715-.683 2.779-.683 1.626 0 2.906.504 3.842 1.511.937 1.006 1.405 2.376 1.405 4.108v.121c0 1.691-.47 3.035-1.41 4.027-.938.994-2.211 1.49-3.817 1.49-1.545 0-2.785-.464-3.722-1.39-.938-.926-1.442-2.182-1.516-3.767l-.009-.57zm3.382.21c0 1.004.157 1.738.472 2.207.313.468.778.702 1.394.702 1.204 0 1.819-.927 1.845-2.78v-.339c0-1.947-.62-2.921-1.864-2.921-1.131 0-1.743.839-1.836 2.519l-.011.612zM96.181 15.752l3.26 10.165 3.251-10.165h4.635v14.609h-3.531v-3.412l.342-6.982-3.532 10.395h-2.327l-3.542-10.404.341 6.992v3.412h-3.521v-14.61h4.624zM115.53 30.361c-.12-.222-.228-.545-.32-.974-.622.783-1.491 1.174-2.608 1.174-1.023 0-1.894-.309-2.61-.928-.715-.618-1.073-1.396-1.073-2.333 0-1.178.436-2.067 1.306-2.668.87-.602 2.132-.904 3.792-.904h1.044v-.574c0-1.001-.434-1.501-1.294-1.501-.803 0-1.205.396-1.205 1.189h-3.382c0-1.049.448-1.9 1.34-2.556.894-.653 2.032-.982 3.416-.982 1.386 0 2.479.337 3.282 1.013.801.676 1.213 1.603 1.234 2.78v4.806c.012.997.167 1.759.462 2.288v.17h-3.384zm-2.116-2.207c.421 0 .771-.091 1.049-.271.276-.182.476-.386.597-.614v-1.735h-.984c-1.178 0-1.765.53-1.765 1.587 0 .306.103.557.311.747.206.189.471.286.792.286zM124.085 16.806v2.699h1.786v2.347h-1.786v4.967c0 .408.074.693.221.853.146.162.438.241.872.241.334 0 .616-.021.843-.061v2.418a6.235 6.235 0 01-1.906.291c-1.164 0-2.022-.275-2.578-.822-.555-.548-.833-1.382-.833-2.498v-5.389h-1.385v-2.347h1.385v-2.699h3.381zM131.291 16.806v2.699h1.785v2.347h-1.785v4.967c0 .408.073.693.221.853.146.162.437.241.872.241.334 0 .615-.021.842-.061v2.418a6.23 6.23 0 01-1.906.291c-1.164 0-2.022-.275-2.578-.822-.554-.548-.833-1.382-.833-2.498v-5.389h-1.384v-2.347h1.384v-2.699h3.382zM139.416 30.561c-1.667 0-3.014-.496-4.045-1.49-1.03-.992-1.544-2.285-1.544-3.877v-.281c0-1.11.205-2.091.616-2.939a4.516 4.516 0 011.802-1.972c.788-.465 1.725-.698 2.809-.698 1.524 0 2.729.474 3.612 1.42.884.946 1.324 2.266 1.324 3.958v1.313h-6.722c.12.608.385 1.088.793 1.436.406.349.937.521 1.585.521 1.071 0 1.904-.375 2.508-1.123l1.545 1.826c-.421.581-1.018 1.046-1.791 1.389a6.035 6.035 0 01-2.492.517zm-.383-8.649c-.989 0-1.578.656-1.765 1.967h3.41v-.261c.015-.542-.124-.961-.411-1.26-.287-.296-.699-.446-1.234-.446zM151.89 22.566l-1.113-.082c-1.063 0-1.746.335-2.046 1.004v6.873h-3.381V19.505h3.17l.11 1.395c.568-1.064 1.361-1.596 2.378-1.596.361 0 .675.041.943.12l-.061 3.142zM158.719 27.31c0-.287-.149-.519-.452-.691-.299-.174-.872-.355-1.714-.542-.844-.188-1.538-.434-2.088-.737-.549-.304-.966-.674-1.253-1.109a2.643 2.643 0 01-.434-1.494c0-.997.412-1.818 1.234-2.464.823-.645 1.9-.968 3.232-.968 1.431 0 2.581.325 3.45.974.87.648 1.305 1.502 1.305 2.558h-3.39c0-.87-.46-1.305-1.375-1.305-.356 0-.653.099-.895.296s-.361.444-.361.739c0 .3.148.544.442.731.295.188.764.341 1.41.461a12.29 12.29 0 011.7.432c1.632.563 2.447 1.569 2.447 3.02 0 .99-.44 1.797-1.318 2.419-.88.622-2.018.933-3.416.933-.931 0-1.76-.167-2.489-.502-.729-.334-1.297-.789-1.706-1.365-.407-.573-.611-1.18-.611-1.814h3.161c.012.502.18.867.5 1.099.322.23.733.346 1.235.346.461 0 .807-.094 1.038-.28a.908.908 0 00.348-.737z"/><g><path fill="#39B54A" d="M24.002 45.745c2.133-7.956 19.264-12.922 22.232-24.832C50.96 1.966 28.2-4.859 24.002 9.769"/><path fill="#009444" d="M24.002 45.745c-2.127-7.956-19.258-12.922-22.23-24.832C-2.949 1.966 19.81-4.859 24.002 9.769"/></g></svg>