<svg width="55" height="53" viewBox="0 0 55 53" fill="none" xmlns="http://www.w3.org/2000/svg">
<g clip-path="url(#clip0_335_926)">
<path d="M10.0427 -4.10649e-10C4.47947 -1.83168e-10 1.76507e-10 4.31658 3.95717e-10 9.67748L1.77148e-09 43.3226C1.99069e-09 48.6835 4.47947 53.0001 10.0427 53.0001L28.9661 53.0001L28.9661 32.2803L23.2805 32.2803L23.2805 24.8206L28.9661 24.8206L28.9661 18.4473C28.9661 13.4402 32.3255 8.84273 40.0641 8.84273C43.1973 8.84273 45.5143 9.13259 45.5143 9.13259L45.332 16.0988C45.332 16.0988 42.9691 16.0773 40.3906 16.0773C37.6 16.0773 37.1525 17.3163 37.1525 19.3732L37.1525 24.8206L45.5537 24.8206L45.1877 32.2804L37.1525 32.2804L37.1525 53.0001L44.9573 53.0001C50.5205 53.0001 55 48.6835 55 43.3226L55 9.67753C55 4.31664 50.5205 5.29979e-05 44.9573 5.29982e-05L10.0426 5.29996e-05L10.0427 -4.10649e-10Z" fill="#F1F5F2"/>
</g>
<defs>
<clipPath id="clip0_335_926">
<rect width="55" height="53" fill="white"/>
</clipPath>
</defs>
</svg>
