<svg width="205" height="205" viewBox="0 0 205 205" fill="none" xmlns="http://www.w3.org/2000/svg">
<g clip-path="url(#clip0_313_936)">
<path d="M37.4318 0C16.6962 0 0 16.6962 0 37.4318V167.568C0 188.304 16.6962 205 37.4318 205H107.965V124.858H86.7728V96.0042H107.965V71.3529C107.965 51.9855 120.486 34.203 149.33 34.203C161.008 34.203 169.644 35.3242 169.644 35.3242L168.965 62.269C168.965 62.269 160.157 62.1857 150.547 62.1857C140.145 62.1857 138.477 66.9782 138.477 74.9343V96.0044H169.791L168.427 124.858H138.477V205H167.568C188.304 205 205 188.304 205 167.569V37.432C205 16.6964 188.304 0.000205 167.568 0.000205H37.4316L37.4318 0Z" fill="#2E2E2E"/>
</g>
<defs>
<clipPath id="clip0_313_936">
<rect width="205" height="205" fill="white"/>
</clipPath>
</defs>
</svg>
