<svg width="51" height="65" viewBox="0 0 51 65" fill="none" xmlns="http://www.w3.org/2000/svg">
<path d="M28.6477 63.4732C35.4609 55.3224 51 35.5676 51 24.4714C51 11.0137 39.5781 0.0952148 25.5 0.0952148C11.4219 0.0952148 0 11.0137 0 24.4714C0 35.5676 15.5391 55.3224 22.3523 63.4732C23.9859 65.4157 27.0141 65.4157 28.6477 63.4732V63.4732ZM25.5 32.5968C20.8117 32.5968 17 28.953 17 24.4714C17 19.9897 20.8117 16.346 25.5 16.346C30.1883 16.346 34 19.9897 34 24.4714C34 28.953 30.1883 32.5968 25.5 32.5968Z" fill="#F1F5F2"/>
</svg>
