<svg width="64" height="64" viewBox="0 0 64 64" fill="none" xmlns="http://www.w3.org/2000/svg">
<path d="M55.35 14.3875L48.6937 7.7375C48.2242 7.2659 47.6661 6.89171 47.0515 6.63644C46.437 6.38117 45.778 6.24984 45.1125 6.25C43.7562 6.25 42.4813 6.78125 41.525 7.7375L34.3625 14.9C33.8909 15.3695 33.5167 15.9276 33.2614 16.5422C33.0062 17.1568 32.8748 17.8158 32.875 18.4813C32.875 19.8375 33.4062 21.1125 34.3625 22.0688L39.6 27.3062C38.374 30.0085 36.6695 32.4668 34.5687 34.5625C32.4733 36.6684 30.0152 38.3791 27.3125 39.6125L22.075 34.375C21.6055 33.9034 21.0474 33.5292 20.4328 33.2739C19.8182 33.0187 19.1592 32.8873 18.4938 32.8875C17.1375 32.8875 15.8625 33.4187 14.9063 34.375L7.7375 41.5312C7.26532 42.0017 6.89081 42.5608 6.63553 43.1765C6.38025 43.7922 6.24923 44.4522 6.25 45.1188C6.25 46.475 6.78125 47.75 7.7375 48.7062L14.3813 55.35C15.9063 56.8812 18.0125 57.75 20.175 57.75C20.6313 57.75 21.0688 57.7125 21.5 57.6375C29.925 56.25 38.2813 51.7688 45.025 45.0312C51.7625 38.3 56.2375 29.95 57.6437 21.5C58.0687 18.9188 57.2125 16.2625 55.35 14.3875V14.3875Z" fill="#F1F5F2"/>
</svg>
