<svg width="260" height="213" viewBox="0 0 260 213" fill="none" xmlns="http://www.w3.org/2000/svg">
<g filter="url(#filter0_d_313_935)">
<path d="M256 24.3167C246.733 28.426 236.778 31.2025 226.312 32.4574C237.111 25.9914 245.19 15.8147 249.041 3.82621C238.896 9.85664 227.792 14.1014 216.212 16.376C208.425 8.05609 198.111 2.54154 186.872 0.688486C175.632 -1.16457 164.095 0.747542 154.053 6.12796C144.01 11.5084 136.024 20.0561 131.334 30.444C126.643 40.8318 125.511 52.4787 128.113 63.5764C107.556 62.5435 87.4447 57.1965 69.0857 47.8826C50.7267 38.5686 34.5299 25.4958 21.5466 9.51248C17.1072 17.1756 14.5546 26.0604 14.5546 35.5227C14.5496 44.0409 16.6459 52.4287 20.6573 59.9418C24.6688 67.4548 30.4714 73.8609 37.5504 78.5917C29.3407 78.3303 21.3121 76.1104 14.1328 72.1169V72.7832C14.132 84.7304 18.2618 96.3099 25.8215 105.557C33.3811 114.804 43.9051 121.149 55.6075 123.515C47.9916 125.578 40.0069 125.882 32.2565 124.404C35.5582 134.684 41.9897 143.673 50.6506 150.113C59.3115 156.554 69.7681 160.123 80.5567 160.321C62.2425 174.707 39.6246 182.511 16.3414 182.477C12.217 182.478 8.09615 182.237 4 181.755C27.6338 196.961 55.1452 205.031 83.2425 205C178.356 205 230.352 126.17 230.352 57.8013C230.352 55.5801 230.296 53.3367 230.196 51.1155C240.31 43.7963 249.04 34.733 255.978 24.3501L256 24.3167V24.3167Z" fill="#2E2E2E"/>
</g>
<defs>
<filter id="filter0_d_313_935" x="0" y="0" width="260" height="213" filterUnits="userSpaceOnUse" color-interpolation-filters="sRGB">
<feFlood flood-opacity="0" result="BackgroundImageFix"/>
<feColorMatrix in="SourceAlpha" type="matrix" values="0 0 0 0 0 0 0 0 0 0 0 0 0 0 0 0 0 0 127 0" result="hardAlpha"/>
<feOffset dy="4"/>
<feGaussianBlur stdDeviation="2"/>
<feComposite in2="hardAlpha" operator="out"/>
<feColorMatrix type="matrix" values="0 0 0 0 0 0 0 0 0 0 0 0 0 0 0 0 0 0 0.25 0"/>
<feBlend mode="normal" in2="BackgroundImageFix" result="effect1_dropShadow_313_935"/>
<feBlend mode="normal" in="SourceGraphic" in2="effect1_dropShadow_313_935" result="shape"/>
</filter>
</defs>
</svg>
