<?xml version="1.0" encoding="utf-8"?>
<!-- Generator: Adobe Illustrator 26.3.1, SVG Export Plug-In . SVG Version: 6.00 Build 0)  -->
<svg version="1.1" id="Layer_1" xmlns="http://www.w3.org/2000/svg" xmlns:xlink="http://www.w3.org/1999/xlink" x="0px" y="0px"
	 viewBox="0 0 254.9 206" style="enable-background:new 0 0 254.9 206;" xml:space="preserve">
<style type="text/css">
	.st0{fill:#2E2E2E;}
</style>
<g>
	<path class="st0" d="M254,24.3c-9.3,4.1-19.2,6.9-29.7,8.1C235.1,26,243.2,15.8,247,3.8c-10.1,6-21.2,10.3-32.8,12.5
		c-7.8-8.3-18.1-13.8-29.3-15.7c-11.2-1.9-22.8,0.1-32.8,5.4c-10,5.4-18,13.9-22.7,24.3c-4.7,10.4-5.8,22-3.2,33.1
		c-20.6-1-40.7-6.4-59-15.7C48.7,38.6,32.5,25.5,19.5,9.5c-4.4,7.7-7,16.5-7,26c0,8.5,2.1,16.9,6.1,24.4c4,7.5,9.8,13.9,16.9,18.6
		c-8.2-0.3-16.2-2.5-23.4-6.5v0.7c0,11.9,4.1,23.5,11.7,32.8c7.6,9.2,18.1,15.6,29.8,18c-7.6,2.1-15.6,2.4-23.4,0.9
		c3.3,10.3,9.7,19.3,18.4,25.7c8.7,6.4,19.1,10,29.9,10.2c-18.3,14.4-40.9,22.2-64.2,22.2c-4.1,0-8.2-0.2-12.3-0.7
		C25.6,197,53.1,205,81.2,205c95.1,0,147.1-78.8,147.1-147.2c0-2.2-0.1-4.5-0.2-6.7C238.3,43.8,247,34.7,254,24.3L254,24.3L254,24.3
		z"/>
</g>
</svg>
