<svg width="65" height="53" viewBox="0 0 65 53" fill="none" xmlns="http://www.w3.org/2000/svg">
<path d="M64.0442 6.76224C61.7136 7.79848 59.2095 8.49982 56.5764 8.81873C59.2916 7.18938 61.3213 4.62782 62.2867 1.61202C59.7357 3.13164 56.943 4.20254 54.03 4.77818C52.068 2.68859 49.4709 1.30522 46.6421 0.842845C43.8133 0.380468 40.911 0.864956 38.3857 2.22109C35.8605 3.57722 33.8536 5.72913 32.6767 8.34271C31.4998 10.9563 31.2186 13.8853 31.877 16.675C26.7038 16.4219 21.6416 15.0838 17.019 12.7476C12.3964 10.4114 8.31673 7.12933 5.04468 3.11439C3.93006 5.04274 3.29058 7.27767 3.2936 9.65701C3.29506 11.799 3.82521 13.9074 4.837 15.7954C5.84878 17.6833 7.31093 19.2923 9.09369 20.4796C7.02782 20.4165 5.0069 19.8608 3.19913 18.8589L3.19935 19.0265C3.20294 22.0307 4.2458 24.9411 6.15096 27.2639C8.05613 29.5867 10.7062 31.1788 13.6517 31.7701C11.7359 32.2912 9.72688 32.3701 7.7762 32.001C8.61028 34.5848 10.2315 36.8432 12.4128 38.4599C14.5942 40.0766 17.2265 40.9707 19.9413 41.017C15.3375 44.6405 9.64872 46.61 3.79003 46.6088C2.75223 46.6104 1.71523 46.5511 0.684375 46.4312C6.63611 50.2473 13.5613 52.2678 20.6313 52.251C44.5644 52.2207 57.6228 32.3818 57.601 15.1903C57.6003 14.6317 57.5856 14.0676 57.5598 13.5091C60.1024 11.6655 62.2963 9.38368 64.0386 6.77063L64.0442 6.76224V6.76224Z" fill="#F1F5F2"/>
</svg>
